<?xml version="1.0" encoding="UTF-8" standalone="no"?>
<!DOCTYPE svg PUBLIC "-//W3C//DTD SVG 1.1//EN"
 "http://www.w3.org/Graphics/SVG/1.1/DTD/svg11.dtd">
<!-- Generated by graphviz version 12.1.1 (20240910.0053)
 -->
<!-- Title: INFRA Pages: 1 -->
<svg width="2655pt" height="296pt"
 viewBox="0.00 0.00 2655.42 296.00" xmlns="http://www.w3.org/2000/svg" xmlns:xlink="http://www.w3.org/1999/xlink">
<g id="graph0" class="graph" transform="scale(1 1) rotate(0) translate(4 292)">
<title>INFRA</title>
<polygon fill="white" stroke="none" points="-4,4 -4,-292 2651.42,-292 2651.42,4 -4,4"/>
<!-- User -->
<g id="node1" class="node">
<title>User</title>
<path fill="#ffcfb3" stroke="black" stroke-width="2" d="M376.01,-65.45C376.01,-69.07 350.1,-72 318.21,-72 286.32,-72 260.41,-69.07 260.41,-65.45 260.41,-65.45 260.41,-6.55 260.41,-6.55 260.41,-2.93 286.32,0 318.21,0 350.1,0 376.01,-2.93 376.01,-6.55 376.01,-6.55 376.01,-65.45 376.01,-65.45"/>
<path fill="none" stroke="black" stroke-width="2" d="M376.01,-65.45C376.01,-61.84 350.1,-58.91 318.21,-58.91 286.32,-58.91 260.41,-61.84 260.41,-65.45"/>
<text text-anchor="middle" x="318.21" y="-40.2" font-family="Arial" font-size="14.00">User</text>
<text text-anchor="middle" x="318.21" y="-23.4" font-family="Arial" font-size="14.00">(Django::Model)</text>
</g>
<!-- User.gold -->
<g id="node2" class="node">
<title>User.gold</title>
<path fill="#ffcfb3" stroke="black" stroke-width="2" d="M200.42,-173.45C200.42,-177.07 155.5,-180 100.21,-180 44.92,-180 0,-177.07 0,-173.45 0,-173.45 0,-114.55 0,-114.55 0,-110.93 44.92,-108 100.21,-108 155.5,-108 200.42,-110.93 200.42,-114.55 200.42,-114.55 200.42,-173.45 200.42,-173.45"/>
<path fill="none" stroke="black" stroke-width="2" d="M200.42,-173.45C200.42,-169.84 155.5,-166.91 100.21,-166.91 44.92,-166.91 0,-169.84 0,-173.45"/>
<text text-anchor="middle" x="100.21" y="-148.2" font-family="Arial" font-size="14.00">User.gold</text>
<text text-anchor="middle" x="100.21" y="-131.4" font-family="Arial" font-size="14.00">(Django::PositiveIntegerField)</text>
</g>
<!-- User.gold&#45;&gt;User -->
<g id="edge1" class="edge">
<title>User.gold&#45;&gt;User</title>
<path fill="none" stroke="black" d="M170.99,-108.58C196.34,-96.26 224.85,-82.4 249.98,-70.18"/>
<polygon fill="black" stroke="black" points="251.33,-73.41 258.8,-65.89 248.27,-67.11 251.33,-73.41"/>
</g>
<!-- User.xp -->
<g id="node3" class="node">
<title>User.xp</title>
<path fill="#ffcfb3" stroke="black" stroke-width="2" d="M418.42,-173.45C418.42,-177.07 373.5,-180 318.21,-180 262.92,-180 218,-177.07 218,-173.45 218,-173.45 218,-114.55 218,-114.55 218,-110.93 262.92,-108 318.21,-108 373.5,-108 418.42,-110.93 418.42,-114.55 418.42,-114.55 418.42,-173.45 418.42,-173.45"/>
<path fill="none" stroke="black" stroke-width="2" d="M418.42,-173.45C418.42,-169.84 373.5,-166.91 318.21,-166.91 262.92,-166.91 218,-169.84 218,-173.45"/>
<text text-anchor="middle" x="318.21" y="-148.2" font-family="Arial" font-size="14.00">User.xp</text>
<text text-anchor="middle" x="318.21" y="-131.4" font-family="Arial" font-size="14.00">(Django::PositiveIntegerField)</text>
</g>
<!-- User.xp&#45;&gt;User -->
<g id="edge2" class="edge">
<title>User.xp&#45;&gt;User</title>
<path fill="none" stroke="black" d="M318.21,-107.7C318.21,-99.93 318.21,-91.57 318.21,-83.43"/>
<polygon fill="black" stroke="black" points="321.71,-83.66 318.21,-73.66 314.71,-83.66 321.71,-83.66"/>
</g>
<!-- Inventory -->
<g id="node4" class="node">
<title>Inventory</title>
<path fill="#ffcfb3" stroke="black" stroke-width="2" d="M552.01,-173.45C552.01,-177.07 526.1,-180 494.21,-180 462.32,-180 436.41,-177.07 436.41,-173.45 436.41,-173.45 436.41,-114.55 436.41,-114.55 436.41,-110.93 462.32,-108 494.21,-108 526.1,-108 552.01,-110.93 552.01,-114.55 552.01,-114.55 552.01,-173.45 552.01,-173.45"/>
<path fill="none" stroke="black" stroke-width="2" d="M552.01,-173.45C552.01,-169.84 526.1,-166.91 494.21,-166.91 462.32,-166.91 436.41,-169.84 436.41,-173.45"/>
<text text-anchor="middle" x="494.21" y="-148.2" font-family="Arial" font-size="14.00">Inventory</text>
<text text-anchor="middle" x="494.21" y="-131.4" font-family="Arial" font-size="14.00">(Django::Model)</text>
</g>
<!-- Inventory&#45;&gt;User -->
<g id="edge3" class="edge">
<title>Inventory&#45;&gt;User</title>
<path fill="none" stroke="black" d="M439.97,-110.33C421.73,-99.35 401.22,-87 382.3,-75.6"/>
<polygon fill="black" stroke="black" points="384.24,-72.68 373.87,-70.52 380.63,-78.68 384.24,-72.68"/>
</g>
<!-- Shop -->
<g id="node8" class="node">
<title>Shop</title>
<path fill="#ffcfb3" stroke="black" stroke-width="2" d="M1194.01,-65.45C1194.01,-69.07 1168.1,-72 1136.21,-72 1104.32,-72 1078.41,-69.07 1078.41,-65.45 1078.41,-65.45 1078.41,-6.55 1078.41,-6.55 1078.41,-2.93 1104.32,0 1136.21,0 1168.1,0 1194.01,-2.93 1194.01,-6.55 1194.01,-6.55 1194.01,-65.45 1194.01,-65.45"/>
<path fill="none" stroke="black" stroke-width="2" d="M1194.01,-65.45C1194.01,-61.84 1168.1,-58.91 1136.21,-58.91 1104.32,-58.91 1078.41,-61.84 1078.41,-65.45"/>
<text text-anchor="middle" x="1136.21" y="-40.2" font-family="Arial" font-size="14.00">Shop</text>
<text text-anchor="middle" x="1136.21" y="-23.4" font-family="Arial" font-size="14.00">(Django::Model)</text>
</g>
<!-- Inventory&#45;&gt;Shop -->
<g id="edge4" class="edge">
<title>Inventory&#45;&gt;Shop</title>
<path fill="none" stroke="black" d="M552.15,-111.17C555.17,-110.01 558.2,-108.94 561.21,-108 737.66,-53.01 957.04,-40.38 1066.82,-37.63"/>
<polygon fill="black" stroke="black" points="1066.63,-41.14 1076.55,-37.41 1066.47,-34.14 1066.63,-41.14"/>
</g>
<!-- Inventory.is_equipped -->
<g id="node5" class="node">
<title>Inventory.is_equipped</title>
<path fill="#ffcfb3" stroke="black" stroke-width="2" d="M396.81,-281.45C396.81,-285.07 361.13,-288 317.21,-288 273.29,-288 237.61,-285.07 237.61,-281.45 237.61,-281.45 237.61,-222.55 237.61,-222.55 237.61,-218.93 273.29,-216 317.21,-216 361.13,-216 396.81,-218.93 396.81,-222.55 396.81,-222.55 396.81,-281.45 396.81,-281.45"/>
<path fill="none" stroke="black" stroke-width="2" d="M396.81,-281.45C396.81,-277.84 361.13,-274.91 317.21,-274.91 273.29,-274.91 237.61,-277.84 237.61,-281.45"/>
<text text-anchor="middle" x="317.21" y="-256.2" font-family="Arial" font-size="14.00">Inventory.is_equipped</text>
<text text-anchor="middle" x="317.21" y="-239.4" font-family="Arial" font-size="14.00">(Django::BooleanField)</text>
</g>
<!-- Inventory.is_equipped&#45;&gt;Inventory -->
<g id="edge5" class="edge">
<title>Inventory.is_equipped&#45;&gt;Inventory</title>
<path fill="none" stroke="black" d="M374.19,-216.88C391.92,-206.26 411.6,-194.48 429.8,-183.57"/>
<polygon fill="black" stroke="black" points="431.37,-186.71 438.15,-178.57 427.77,-180.71 431.37,-186.71"/>
</g>
<!-- Inventory.is_unlocked -->
<g id="node6" class="node">
<title>Inventory.is_unlocked</title>
<path fill="#ffcfb3" stroke="black" stroke-width="2" d="M573.81,-281.45C573.81,-285.07 538.13,-288 494.21,-288 450.29,-288 414.61,-285.07 414.61,-281.45 414.61,-281.45 414.61,-222.55 414.61,-222.55 414.61,-218.93 450.29,-216 494.21,-216 538.13,-216 573.81,-218.93 573.81,-222.55 573.81,-222.55 573.81,-281.45 573.81,-281.45"/>
<path fill="none" stroke="black" stroke-width="2" d="M573.81,-281.45C573.81,-277.84 538.13,-274.91 494.21,-274.91 450.29,-274.91 414.61,-277.84 414.61,-281.45"/>
<text text-anchor="middle" x="494.21" y="-256.2" font-family="Arial" font-size="14.00">Inventory.is_unlocked</text>
<text text-anchor="middle" x="494.21" y="-239.4" font-family="Arial" font-size="14.00">(Django::BooleanField)</text>
</g>
<!-- Inventory.is_unlocked&#45;&gt;Inventory -->
<g id="edge6" class="edge">
<title>Inventory.is_unlocked&#45;&gt;Inventory</title>
<path fill="none" stroke="black" d="M494.21,-215.7C494.21,-207.93 494.21,-199.57 494.21,-191.43"/>
<polygon fill="black" stroke="black" points="497.71,-191.66 494.21,-181.66 490.71,-191.66 497.71,-191.66"/>
</g>
<!-- Inventory.is_purchased -->
<g id="node7" class="node">
<title>Inventory.is_purchased</title>
<path fill="#ffcfb3" stroke="black" stroke-width="2" d="M752.59,-281.45C752.59,-285.07 716.56,-288 672.21,-288 627.86,-288 591.83,-285.07 591.83,-281.45 591.83,-281.45 591.83,-222.55 591.83,-222.55 591.83,-218.93 627.86,-216 672.21,-216 716.56,-216 752.59,-218.93 752.59,-222.55 752.59,-222.55 752.59,-281.45 752.59,-281.45"/>
<path fill="none" stroke="black" stroke-width="2" d="M752.59,-281.45C752.59,-277.84 716.56,-274.91 672.21,-274.91 627.86,-274.91 591.83,-277.84 591.83,-281.45"/>
<text text-anchor="middle" x="672.21" y="-256.2" font-family="Arial" font-size="14.00">Inventory.is_purchased</text>
<text text-anchor="middle" x="672.21" y="-239.4" font-family="Arial" font-size="14.00">(Django::BooleanField)</text>
</g>
<!-- Inventory.is_purchased&#45;&gt;Inventory -->
<g id="edge7" class="edge">
<title>Inventory.is_purchased&#45;&gt;Inventory</title>
<path fill="none" stroke="black" d="M614.91,-216.88C597.08,-206.26 577.29,-194.48 558.99,-183.57"/>
<polygon fill="black" stroke="black" points="560.96,-180.68 550.58,-178.57 557.38,-186.69 560.96,-180.68"/>
</g>
<!-- Shop.type -->
<g id="node9" class="node">
<title>Shop.type</title>
<path fill="#ffcfb3" stroke="black" stroke-width="2" d="M708.29,-173.45C708.29,-177.07 677.33,-180 639.21,-180 601.09,-180 570.13,-177.07 570.13,-173.45 570.13,-173.45 570.13,-114.55 570.13,-114.55 570.13,-110.93 601.09,-108 639.21,-108 677.33,-108 708.29,-110.93 708.29,-114.55 708.29,-114.55 708.29,-173.45 708.29,-173.45"/>
<path fill="none" stroke="black" stroke-width="2" d="M708.29,-173.45C708.29,-169.84 677.33,-166.91 639.21,-166.91 601.09,-166.91 570.13,-169.84 570.13,-173.45"/>
<text text-anchor="middle" x="639.21" y="-148.2" font-family="Arial" font-size="14.00">Shop.type</text>
<text text-anchor="middle" x="639.21" y="-131.4" font-family="Arial" font-size="14.00">(Django::CharField)</text>
</g>
<!-- Shop.type&#45;&gt;Shop -->
<g id="edge8" class="edge">
<title>Shop.type&#45;&gt;Shop</title>
<path fill="none" stroke="black" d="M708.61,-110.81C711.5,-109.8 714.37,-108.86 717.21,-108 837.35,-71.52 982.92,-52.16 1067.02,-43.29"/>
<polygon fill="black" stroke="black" points="1067.13,-46.8 1076.71,-42.29 1066.41,-39.83 1067.13,-46.8"/>
</g>
<!-- Shop.name -->
<g id="node10" class="node">
<title>Shop.name</title>
<path fill="#ffcfb3" stroke="black" stroke-width="2" d="M864.29,-173.45C864.29,-177.07 833.33,-180 795.21,-180 757.09,-180 726.13,-177.07 726.13,-173.45 726.13,-173.45 726.13,-114.55 726.13,-114.55 726.13,-110.93 757.09,-108 795.21,-108 833.33,-108 864.29,-110.93 864.29,-114.55 864.29,-114.55 864.29,-173.45 864.29,-173.45"/>
<path fill="none" stroke="black" stroke-width="2" d="M864.29,-173.45C864.29,-169.84 833.33,-166.91 795.21,-166.91 757.09,-166.91 726.13,-169.84 726.13,-173.45"/>
<text text-anchor="middle" x="795.21" y="-148.2" font-family="Arial" font-size="14.00">Shop.name</text>
<text text-anchor="middle" x="795.21" y="-131.4" font-family="Arial" font-size="14.00">(Django::CharField)</text>
</g>
<!-- Shop.name&#45;&gt;Shop -->
<g id="edge9" class="edge">
<title>Shop.name&#45;&gt;Shop</title>
<path fill="none" stroke="black" d="M864.73,-111.15C867.58,-110.05 870.41,-109 873.21,-108 937.67,-85 1013.29,-65.32 1066.86,-52.55"/>
<polygon fill="black" stroke="black" points="1067.54,-55.98 1076.47,-50.28 1065.93,-49.17 1067.54,-55.98"/>
</g>
<!-- Shop.description -->
<g id="node11" class="node">
<title>Shop.description</title>
<path fill="#ffcfb3" stroke="black" stroke-width="2" d="M1017.73,-173.45C1017.73,-177.07 987.47,-180 950.21,-180 912.95,-180 882.69,-177.07 882.69,-173.45 882.69,-173.45 882.69,-114.55 882.69,-114.55 882.69,-110.93 912.95,-108 950.21,-108 987.47,-108 1017.73,-110.93 1017.73,-114.55 1017.73,-114.55 1017.73,-173.45 1017.73,-173.45"/>
<path fill="none" stroke="black" stroke-width="2" d="M1017.73,-173.45C1017.73,-169.84 987.47,-166.91 950.21,-166.91 912.95,-166.91 882.69,-169.84 882.69,-173.45"/>
<text text-anchor="middle" x="950.21" y="-148.2" font-family="Arial" font-size="14.00">Shop.description</text>
<text text-anchor="middle" x="950.21" y="-131.4" font-family="Arial" font-size="14.00">(Django::TextField)</text>
</g>
<!-- Shop.description&#45;&gt;Shop -->
<g id="edge10" class="edge">
<title>Shop.description&#45;&gt;Shop</title>
<path fill="none" stroke="black" d="M1008.81,-109.61C1028.03,-98.65 1049.53,-86.4 1069.32,-75.12"/>
<polygon fill="black" stroke="black" points="1070.91,-78.24 1077.87,-70.25 1067.44,-72.16 1070.91,-78.24"/>
</g>
<!-- Shop.required_xp -->
<g id="node12" class="node">
<title>Shop.required_xp</title>
<path fill="#ffcfb3" stroke="black" stroke-width="2" d="M1236.42,-173.45C1236.42,-177.07 1191.5,-180 1136.21,-180 1080.92,-180 1036,-177.07 1036,-173.45 1036,-173.45 1036,-114.55 1036,-114.55 1036,-110.93 1080.92,-108 1136.21,-108 1191.5,-108 1236.42,-110.93 1236.42,-114.55 1236.42,-114.55 1236.42,-173.45 1236.42,-173.45"/>
<path fill="none" stroke="black" stroke-width="2" d="M1236.42,-173.45C1236.42,-169.84 1191.5,-166.91 1136.21,-166.91 1080.92,-166.91 1036,-169.84 1036,-173.45"/>
<text text-anchor="middle" x="1136.21" y="-148.2" font-family="Arial" font-size="14.00">Shop.required_xp</text>
<text text-anchor="middle" x="1136.21" y="-131.4" font-family="Arial" font-size="14.00">(Django::PositiveIntegerField)</text>
</g>
<!-- Shop.required_xp&#45;&gt;Shop -->
<g id="edge11" class="edge">
<title>Shop.required_xp&#45;&gt;Shop</title>
<path fill="none" stroke="black" d="M1136.21,-107.7C1136.21,-99.93 1136.21,-91.57 1136.21,-83.43"/>
<polygon fill="black" stroke="black" points="1139.71,-83.66 1136.21,-73.66 1132.71,-83.66 1139.71,-83.66"/>
</g>
<!-- Shop.price -->
<g id="node13" class="node">
<title>Shop.price</title>
<path fill="#ffcfb3" stroke="black" stroke-width="2" d="M1454.42,-173.45C1454.42,-177.07 1409.5,-180 1354.21,-180 1298.92,-180 1254,-177.07 1254,-173.45 1254,-173.45 1254,-114.55 1254,-114.55 1254,-110.93 1298.92,-108 1354.21,-108 1409.5,-108 1454.42,-110.93 1454.42,-114.55 1454.42,-114.55 1454.42,-173.45 1454.42,-173.45"/>
<path fill="none" stroke="black" stroke-width="2" d="M1454.42,-173.45C1454.42,-169.84 1409.5,-166.91 1354.21,-166.91 1298.92,-166.91 1254,-169.84 1254,-173.45"/>
<text text-anchor="middle" x="1354.21" y="-148.2" font-family="Arial" font-size="14.00">Shop.price</text>
<text text-anchor="middle" x="1354.21" y="-131.4" font-family="Arial" font-size="14.00">(Django::PositiveIntegerField)</text>
</g>
<!-- Shop.price&#45;&gt;Shop -->
<g id="edge12" class="edge">
<title>Shop.price&#45;&gt;Shop</title>
<path fill="none" stroke="black" d="M1283.43,-108.58C1258.08,-96.26 1229.57,-82.4 1204.44,-70.18"/>
<polygon fill="black" stroke="black" points="1206.15,-67.11 1195.62,-65.89 1203.09,-73.41 1206.15,-67.11"/>
</g>
<!-- Shop.image_character_url -->
<g id="node14" class="node">
<title>Shop.image_character_url</title>
<path fill="#ffcfb3" stroke="black" stroke-width="2" d="M1652.31,-173.45C1652.31,-177.07 1611.93,-180 1562.21,-180 1512.49,-180 1472.11,-177.07 1472.11,-173.45 1472.11,-173.45 1472.11,-114.55 1472.11,-114.55 1472.11,-110.93 1512.49,-108 1562.21,-108 1611.93,-108 1652.31,-110.93 1652.31,-114.55 1652.31,-114.55 1652.31,-173.45 1652.31,-173.45"/>
<path fill="none" stroke="black" stroke-width="2" d="M1652.31,-173.45C1652.31,-169.84 1611.93,-166.91 1562.21,-166.91 1512.49,-166.91 1472.11,-169.84 1472.11,-173.45"/>
<text text-anchor="middle" x="1562.21" y="-148.2" font-family="Arial" font-size="14.00">Shop.image_character_url</text>
<text text-anchor="middle" x="1562.21" y="-131.4" font-family="Arial" font-size="14.00">(Django::URLField)</text>
</g>
<!-- Shop.image_character_url&#45;&gt;Shop -->
<g id="edge13" class="edge">
<title>Shop.image_character_url&#45;&gt;Shop</title>
<path fill="none" stroke="black" d="M1471.72,-110.49C1468.86,-109.63 1466.02,-108.8 1463.21,-108 1375.39,-83.05 1272.16,-61.97 1205.53,-49.42"/>
<polygon fill="black" stroke="black" points="1206.31,-46.01 1195.83,-47.61 1205.02,-52.89 1206.31,-46.01"/>
</g>
<!-- Shop.image_preview_url -->
<g id="node15" class="node">
<title>Shop.image_preview_url</title>
<path fill="#ffcfb3" stroke="black" stroke-width="2" d="M1840.25,-173.45C1840.25,-177.07 1802.14,-180 1755.21,-180 1708.28,-180 1670.17,-177.07 1670.17,-173.45 1670.17,-173.45 1670.17,-114.55 1670.17,-114.55 1670.17,-110.93 1708.28,-108 1755.21,-108 1802.14,-108 1840.25,-110.93 1840.25,-114.55 1840.25,-114.55 1840.25,-173.45 1840.25,-173.45"/>
<path fill="none" stroke="black" stroke-width="2" d="M1840.25,-173.45C1840.25,-169.84 1802.14,-166.91 1755.21,-166.91 1708.28,-166.91 1670.17,-169.84 1670.17,-173.45"/>
<text text-anchor="middle" x="1755.21" y="-148.2" font-family="Arial" font-size="14.00">Shop.image_preview_url</text>
<text text-anchor="middle" x="1755.21" y="-131.4" font-family="Arial" font-size="14.00">(Django::URLField)</text>
</g>
<!-- Shop.image_preview_url&#45;&gt;Shop -->
<g id="edge14" class="edge">
<title>Shop.image_preview_url&#45;&gt;Shop</title>
<path fill="none" stroke="black" d="M1670.42,-110.47C1667.33,-109.59 1664.25,-108.76 1661.21,-108 1500.99,-67.87 1307.21,-49.1 1205.8,-41.47"/>
<polygon fill="black" stroke="black" points="1206.23,-38 1196,-40.75 1205.72,-44.98 1206.23,-38"/>
</g>
<!-- Shop.is_default -->
<g id="node16" class="node">
<title>Shop.is_default</title>
<path fill="#ffcfb3" stroke="black" stroke-width="2" d="M2017.81,-173.45C2017.81,-177.07 1982.13,-180 1938.21,-180 1894.29,-180 1858.61,-177.07 1858.61,-173.45 1858.61,-173.45 1858.61,-114.55 1858.61,-114.55 1858.61,-110.93 1894.29,-108 1938.21,-108 1982.13,-108 2017.81,-110.93 2017.81,-114.55 2017.81,-114.55 2017.81,-173.45 2017.81,-173.45"/>
<path fill="none" stroke="black" stroke-width="2" d="M2017.81,-173.45C2017.81,-169.84 1982.13,-166.91 1938.21,-166.91 1894.29,-166.91 1858.61,-169.84 1858.61,-173.45"/>
<text text-anchor="middle" x="1938.21" y="-148.2" font-family="Arial" font-size="14.00">Shop.is_default</text>
<text text-anchor="middle" x="1938.21" y="-131.4" font-family="Arial" font-size="14.00">(Django::BooleanField)</text>
</g>
<!-- Shop.is_default&#45;&gt;Shop -->
<g id="edge15" class="edge">
<title>Shop.is_default&#45;&gt;Shop</title>
<path fill="none" stroke="black" d="M1858.49,-110.45C1855.38,-109.56 1852.28,-108.74 1849.21,-108 1617.98,-52.16 1334.35,-40.12 1205.64,-37.61"/>
<polygon fill="black" stroke="black" points="1205.98,-34.12 1195.92,-37.44 1205.86,-41.12 1205.98,-34.12"/>
</g>
<!-- Task -->
<g id="node17" class="node">
<title>Task</title>
<path fill="#ffcfb3" stroke="black" stroke-width="2" d="M2151.01,-173.45C2151.01,-177.07 2125.1,-180 2093.21,-180 2061.32,-180 2035.41,-177.07 2035.41,-173.45 2035.41,-173.45 2035.41,-114.55 2035.41,-114.55 2035.41,-110.93 2061.32,-108 2093.21,-108 2125.1,-108 2151.01,-110.93 2151.01,-114.55 2151.01,-114.55 2151.01,-173.45 2151.01,-173.45"/>
<path fill="none" stroke="black" stroke-width="2" d="M2151.01,-173.45C2151.01,-169.84 2125.1,-166.91 2093.21,-166.91 2061.32,-166.91 2035.41,-169.84 2035.41,-173.45"/>
<text text-anchor="middle" x="2093.21" y="-148.2" font-family="Arial" font-size="14.00">Task</text>
<text text-anchor="middle" x="2093.21" y="-131.4" font-family="Arial" font-size="14.00">(Django::Model)</text>
</g>
<!-- Task.base_reward_gold -->
<g id="node18" class="node">
<title>Task.base_reward_gold</title>
<path fill="#ffcfb3" stroke="black" stroke-width="2" d="M1739.42,-281.45C1739.42,-285.07 1694.5,-288 1639.21,-288 1583.92,-288 1539,-285.07 1539,-281.45 1539,-281.45 1539,-222.55 1539,-222.55 1539,-218.93 1583.92,-216 1639.21,-216 1694.5,-216 1739.42,-218.93 1739.42,-222.55 1739.42,-222.55 1739.42,-281.45 1739.42,-281.45"/>
<path fill="none" stroke="black" stroke-width="2" d="M1739.42,-281.45C1739.42,-277.84 1694.5,-274.91 1639.21,-274.91 1583.92,-274.91 1539,-277.84 1539,-281.45"/>
<text text-anchor="middle" x="1639.21" y="-256.2" font-family="Arial" font-size="14.00">Task.base_reward_gold</text>
<text text-anchor="middle" x="1639.21" y="-239.4" font-family="Arial" font-size="14.00">(Django::PositiveIntegerField)</text>
</g>
<!-- Task.base_reward_gold&#45;&gt;Task -->
<g id="edge16" class="edge">
<title>Task.base_reward_gold&#45;&gt;Task</title>
<path fill="none" stroke="black" d="M1738.21,-218.37C1741.57,-217.53 1744.91,-216.74 1748.21,-216 1866.66,-189.57 1905.78,-216.24 2024.1,-180.64"/>
<polygon fill="black" stroke="black" points="2025.07,-184 2033.59,-177.69 2023,-177.32 2025.07,-184"/>
</g>
<!-- Task.base_reward_xp -->
<g id="node19" class="node">
<title>Task.base_reward_xp</title>
<path fill="#ffcfb3" stroke="black" stroke-width="2" d="M1957.42,-281.45C1957.42,-285.07 1912.5,-288 1857.21,-288 1801.92,-288 1757,-285.07 1757,-281.45 1757,-281.45 1757,-222.55 1757,-222.55 1757,-218.93 1801.92,-216 1857.21,-216 1912.5,-216 1957.42,-218.93 1957.42,-222.55 1957.42,-222.55 1957.42,-281.45 1957.42,-281.45"/>
<path fill="none" stroke="black" stroke-width="2" d="M1957.42,-281.45C1957.42,-277.84 1912.5,-274.91 1857.21,-274.91 1801.92,-274.91 1757,-277.84 1757,-281.45"/>
<text text-anchor="middle" x="1857.21" y="-256.2" font-family="Arial" font-size="14.00">Task.base_reward_xp</text>
<text text-anchor="middle" x="1857.21" y="-239.4" font-family="Arial" font-size="14.00">(Django::PositiveIntegerField)</text>
</g>
<!-- Task.base_reward_xp&#45;&gt;Task -->
<g id="edge17" class="edge">
<title>Task.base_reward_xp&#45;&gt;Task</title>
<path fill="none" stroke="black" d="M1941.76,-217.49C1966.56,-207.22 1993.81,-195.53 2024.84,-181.02"/>
<polygon fill="black" stroke="black" points="2026.13,-184.29 2033.69,-176.86 2023.15,-177.95 2026.13,-184.29"/>
</g>
<!-- Task.difficulty -->
<g id="node20" class="node">
<title>Task.difficulty</title>
<path fill="#ffcfb3" stroke="black" stroke-width="2" d="M2210.92,-281.45C2210.92,-285.07 2158.16,-288 2093.21,-288 2028.26,-288 1975.5,-285.07 1975.5,-281.45 1975.5,-281.45 1975.5,-222.55 1975.5,-222.55 1975.5,-218.93 2028.26,-216 2093.21,-216 2158.16,-216 2210.92,-218.93 2210.92,-222.55 2210.92,-222.55 2210.92,-281.45 2210.92,-281.45"/>
<path fill="none" stroke="black" stroke-width="2" d="M2210.92,-281.45C2210.92,-277.84 2158.16,-274.91 2093.21,-274.91 2028.26,-274.91 1975.5,-277.84 1975.5,-281.45"/>
<text text-anchor="middle" x="2093.21" y="-256.2" font-family="Arial" font-size="14.00">Task.difficulty</text>
<text text-anchor="middle" x="2093.21" y="-239.4" font-family="Arial" font-size="14.00">(Django::PositiveSmallIntegerField)</text>
</g>
<!-- Task.difficulty&#45;&gt;Task -->
<g id="edge18" class="edge">
<title>Task.difficulty&#45;&gt;Task</title>
<path fill="none" stroke="black" d="M2093.21,-215.7C2093.21,-207.93 2093.21,-199.57 2093.21,-191.43"/>
<polygon fill="black" stroke="black" points="2096.71,-191.66 2093.21,-181.66 2089.71,-191.66 2096.71,-191.66"/>
</g>
<!-- Task.reward_gold -->
<g id="node21" class="node">
<title>Task.reward_gold</title>
<path fill="#ffcfb3" stroke="black" stroke-width="2" d="M2429.42,-281.45C2429.42,-285.07 2384.5,-288 2329.21,-288 2273.92,-288 2229,-285.07 2229,-281.45 2229,-281.45 2229,-222.55 2229,-222.55 2229,-218.93 2273.92,-216 2329.21,-216 2384.5,-216 2429.42,-218.93 2429.42,-222.55 2429.42,-222.55 2429.42,-281.45 2429.42,-281.45"/>
<path fill="none" stroke="black" stroke-width="2" d="M2429.42,-281.45C2429.42,-277.84 2384.5,-274.91 2329.21,-274.91 2273.92,-274.91 2229,-277.84 2229,-281.45"/>
<text text-anchor="middle" x="2329.21" y="-256.2" font-family="Arial" font-size="14.00">Task.reward_gold</text>
<text text-anchor="middle" x="2329.21" y="-239.4" font-family="Arial" font-size="14.00">(Django::PositiveIntegerField)</text>
</g>
<!-- Task.reward_gold&#45;&gt;Task -->
<g id="edge19" class="edge">
<title>Task.reward_gold&#45;&gt;Task</title>
<path fill="none" stroke="black" d="M2253.24,-216.88C2223.84,-203.67 2190.43,-188.67 2161.77,-175.79"/>
<polygon fill="black" stroke="black" points="2163.38,-172.68 2152.83,-171.78 2160.51,-179.07 2163.38,-172.68"/>
</g>
<!-- Task.reward_xp -->
<g id="node22" class="node">
<title>Task.reward_xp</title>
<path fill="#ffcfb3" stroke="black" stroke-width="2" d="M2647.42,-281.45C2647.42,-285.07 2602.5,-288 2547.21,-288 2491.92,-288 2447,-285.07 2447,-281.45 2447,-281.45 2447,-222.55 2447,-222.55 2447,-218.93 2491.92,-216 2547.21,-216 2602.5,-216 2647.42,-218.93 2647.42,-222.55 2647.42,-222.55 2647.42,-281.45 2647.42,-281.45"/>
<path fill="none" stroke="black" stroke-width="2" d="M2647.42,-281.45C2647.42,-277.84 2602.5,-274.91 2547.21,-274.91 2491.92,-274.91 2447,-277.84 2447,-281.45"/>
<text text-anchor="middle" x="2547.21" y="-256.2" font-family="Arial" font-size="14.00">Task.reward_xp</text>
<text text-anchor="middle" x="2547.21" y="-239.4" font-family="Arial" font-size="14.00">(Django::PositiveIntegerField)</text>
</g>
<!-- Task.reward_xp&#45;&gt;Task -->
<g id="edge20" class="edge">
<title>Task.reward_xp&#45;&gt;Task</title>
<path fill="none" stroke="black" d="M2447.25,-218.44C2444.21,-217.6 2441.19,-216.78 2438.21,-216 2343.67,-191.17 2232.68,-169.67 2162.64,-157.02"/>
<polygon fill="black" stroke="black" points="2163.29,-153.58 2152.83,-155.25 2162.05,-160.46 2163.29,-153.58"/>
</g>
</g>
</svg>
